# xmcd
#
# Track frame offsets:
# 150
# 18481
# 34730
# 43031
# 65020
# 83176
# 91425
#
# Disc length: 1495 seconds
#
# Revision: 0
# Processed by: cddbd v1.5.2PL0 Copyright (c) Steve Scherf et al.
# Submitted via: Audion 3.0.2 (http://www.panic.com/audion/)
#
DISCID=5605d507
DTITLE=Mike Doughty - The Gambler-Ep
DYEAR=1900
DGENRE=
TTITLE0=Video - Looking at the World from the Bottom of a Well
TTITLE1=The Gambler
TTITLE2=Strange Powers
TTITLE3=St. Louise is Listening
TTITLE4=Busting Up a Starbucks
TTITLE5=King of Carrot Flowers
TTITLE6=Janine
EXTD=
EXTT0=
EXTT1=
EXTT2=
EXTT3=
EXTT4=
EXTT5=
EXTT6=
PLAYORDER=
